# xmcd
#
# Track frame offsets:
#	150
#	12107
#	29128
#	46089
#	62948
#	78098
#	94914
#	110296
#	127576
#	145510
#	163991
#	185828
#
# Disc length: 2691 seconds
#
# Revision: 1
# Processed by: cddbd v1.4PL0 Copyright (c) Steve Scherf et al.
# Submitted via: audiograbber 1.82.01
#
DISCID=980a810c
DTITLE=Various Artist - Today's Country Hits - Disc 5
DYEAR=2002
DGENRE=Country
TTITLE0=Alan Jackson - www.Memory.com
TTITLE1=Carolyn Dawn Johnson - I Don't Want You To Go
TTITLE2=Dixie Chicks - Wide Open Spaces
TTITLE3=Garth Brooks - The Thunder Rolls
TTITLE4=George Strait - The Best Day Of My Life
TTITLE5=Jo Dee Messina - Stand Beside Me
TTITLE6=Kenny Chesney - Don't Happen Twice
TTITLE7=Kenny Rogers - Buy Me A Rose
TTITLE8=Kevin Denney - That's Just Jesse
TTITLE9=Lonestar - Amazed
TTITLE10=Steve Warner - Holes In The Floor Of Heaven
TTITLE11=Tracy Byrd - I'm From The Country
EXTD=
EXTT0=
EXTT1=
EXTT2=
EXTT3=
EXTT4=
EXTT5=
EXTT6=
EXTT7=
EXTT8=
EXTT9=
EXTT10=
EXTT11=
PLAYORDER=
